<?xml version="1.0" encoding="UTF-8" standalone="no"?>
<!DOCTYPE svg PUBLIC "-//W3C//DTD SVG 1.1//EN" "http://www.w3.org/Graphics/SVG/1.1/DTD/svg11.dtd">
<svg width="100%" height="100%" viewBox="0 0 69933 26226" version="1.1" xmlns="http://www.w3.org/2000/svg" xmlns:xlink="http://www.w3.org/1999/xlink" xml:space="preserve" xmlns:serif="http://www.serif.com/" style="fill-rule:evenodd;clip-rule:evenodd;stroke-linecap:round;stroke-linejoin:round;stroke-miterlimit:1.5;">
    <g transform="matrix(0.449967,0,0,0.449967,19444.8,3594.3)">
        <g transform="matrix(10.326,0,0,11.0106,-1505.62,-107784)">
            <path d="M3024,10482.6L3162.48,10791.4" style="fill:none;stroke:white;stroke-width:93.25px;"/>
        </g>
        <g transform="matrix(10.326,0,0,11.0106,-1505.62,-107784)">
            <path d="M3205.6,10270.3C3309.52,10419.3 3400.69,10585.3 3461.79,10791.4" style="fill:none;stroke:white;stroke-width:93.25px;"/>
        </g>
        <g transform="matrix(10.0535,0,0,10.8555,-562.216,-106110)">
            <path d="M3461.79,10791.4C3513.26,10578.7 3598.05,10392.3 3712.11,10229.3" style="fill:none;stroke:white;stroke-width:95.14px;"/>
        </g>
        <g transform="matrix(10.326,0,0,11.0106,-1505.62,-107784)">
            <g transform="matrix(0.97758,0,0,0.969636,84.4133,327.673)">
                <path d="M3765.18,10791.4C3762.2,10787.8 3904.29,10450.8 3904.29,10450.8" style="fill:none;stroke:white;stroke-width:95.8px;"/>
            </g>
            <g id="Layer1">
                <path d="M2381.51,11251.9L3461.79,9948.44" style="fill:none;stroke:white;stroke-width:93.25px;"/>
                <path d="M4591.2,11251.9L3461.79,9948.44" style="fill:none;stroke:white;stroke-width:93.25px;"/>
                <path d="M2696.95,11529.9L2697.08,10885.6" style="fill:none;stroke:white;stroke-width:93.25px;"/>
                <path d="M4252.96,11529.9L4255.81,10867.9" style="fill:none;stroke:white;stroke-width:93.25px;"/>
                <path d="M2763.68,10813.3L4171.79,10789.3" style="fill:none;stroke:white;stroke-width:93.25px;"/>
                <path d="M2381.51,11529.9L2797.43,11529.9L2800.75,11782.8L2381.51,11787.5L2381.51,11529.9Z" style="fill:none;stroke:white;stroke-width:93.25px;"/>
                <rect x="4171.79" y="11529.9" width="419.412" height="257.546" style="fill:none;stroke:white;stroke-width:93.25px;"/>
                <g transform="matrix(1.10253,0,0,1,-419.896,-5.01064)">
                    <path d="M4240.9,11342.5C4240.9,11342.5 4438.55,11544.9 4438.12,11529.9" style="fill:none;stroke:white;stroke-width:88.87px;"/>
                </g>
                <g transform="matrix(1.01255,-0.0130651,-0.0130651,1.01361,71.2209,-123.836)">
                    <path d="M2739.45,11325L2528.37,11529.9" style="fill:none;stroke:white;stroke-width:93.25px;"/>
                </g>
            </g>
        </g>
    </g>
    <g transform="matrix(1.27313,0,0,1.27313,-4788.98,-4128.89)">
        <g transform="matrix(6274.8,0,0,6274.8,45635.7,20310.1)">
        </g>
        <text x="16826.2px" y="20310.1px" style="font-family:'Palatino-Roman', 'Palatino';font-size:6274.8px;fill:white;stroke:white;stroke-width:0.79px;stroke-linecap:butt;stroke-miterlimit:2;">ST P<tspan x="28747.7px 33628.4px " y="20310.1px 20310.1px ">AU</tspan>LS</text>
    </g>
    <g transform="matrix(1,0,0,1,-10291.3,5179.58)">
        <rect x="10291.3" y="13945.4" width="14405.3" height="167.967" style="fill:white;stroke:white;stroke-width:416.67px;"/>
    </g>
    <g transform="matrix(1,0,0,1,45235.9,5011.62)">
        <rect x="10291.3" y="13945.4" width="14405.3" height="167.967" style="fill:white;stroke:white;stroke-width:416.67px;"/>
    </g>
</svg>
